<?xml version="1.0" encoding="UTF-8" standalone="no"?>
<!DOCTYPE svg PUBLIC "-//W3C//DTD SVG 1.1//EN" "http://www.w3.org/Graphics/SVG/1.1/DTD/svg11.dtd">
<svg version="1.1" xmlns="http://www.w3.org/2000/svg" xmlns:xlink="http://www.w3.org/1999/xlink" preserveAspectRatio="xMidYMid meet" viewBox="0 0 400 280" width="400" height="280"><defs><path d="M229.33 50C229.33 66.56 215.89 80 199.33 80C182.78 80 169.33 66.56 169.33 50C169.33 33.44 182.78 20 199.33 20C215.89 20 229.33 33.44 229.33 50Z" id="b1kDwa6Puq"></path><path d="M229.33 230C229.33 246.56 215.89 260 199.33 260C182.78 260 169.33 246.56 169.33 230C169.33 213.44 182.78 200 199.33 200C215.89 200 229.33 213.44 229.33 230Z" id="a3c5zcXrPj"></path><path d="M152.33 97.33C152.33 113.89 138.89 127.33 122.33 127.33C105.78 127.33 92.33 113.89 92.33 97.33C92.33 80.78 105.78 67.33 122.33 67.33C138.89 67.33 152.33 80.78 152.33 97.33Z" id="c6RlKPO0lT"></path><path d="M152.33 183.33C152.33 199.89 138.89 213.33 122.33 213.33C105.78 213.33 92.33 199.89 92.33 183.33C92.33 166.78 105.78 153.33 122.33 153.33C138.89 153.33 152.33 166.78 152.33 183.33Z" id="b1wk94q7oY"></path><path d="M307.67 98C307.67 114.56 294.22 128 277.67 128C261.11 128 247.67 114.56 247.67 98C247.67 81.44 261.11 68 277.67 68C294.22 68 307.67 81.44 307.67 98Z" id="b1w150XKVs"></path><path d="M307.67 183C307.67 199.56 294.22 213 277.67 213C261.11 213 247.67 199.56 247.67 183C247.67 166.44 261.11 153 277.67 153C294.22 153 307.67 166.44 307.67 183Z" id="cFJMq6d4l"></path><path d="M231.83 140C231.83 157.94 217.27 172.5 199.33 172.5C181.4 172.5 166.83 157.94 166.83 140C166.83 122.06 181.4 107.5 199.33 107.5C217.27 107.5 231.83 122.06 231.83 140Z" id="a2jXDSv16U"></path></defs><g><g><g><use xlink:href="#b1kDwa6Puq" opacity="1" fill="#34d789" fill-opacity="1"></use></g><g><use xlink:href="#a3c5zcXrPj" opacity="1" fill="#34d789" fill-opacity="1"></use></g><g><use xlink:href="#c6RlKPO0lT" opacity="1" fill="#34d789" fill-opacity="1"></use></g><g><use xlink:href="#b1wk94q7oY" opacity="1" fill="#34d789" fill-opacity="1"></use></g><g><use xlink:href="#b1w150XKVs" opacity="1" fill="#34d789" fill-opacity="1"></use></g><g><use xlink:href="#cFJMq6d4l" opacity="1" fill="#34d789" fill-opacity="1"></use></g><g><g><use xlink:href="#a2jXDSv16U" opacity="1" fill-opacity="0" stroke="#34d789" stroke-width="35" stroke-opacity="1"></use></g></g></g></g></svg>