<?xml version="1.0" encoding="UTF-8" standalone="no"?>
<!DOCTYPE svg PUBLIC "-//W3C//DTD SVG 1.1//EN" "http://www.w3.org/Graphics/SVG/1.1/DTD/svg11.dtd">
<svg version="1.1" xmlns="http://www.w3.org/2000/svg" xmlns:xlink="http://www.w3.org/1999/xlink" preserveAspectRatio="xMidYMid meet" viewBox="0 0 215 240" width="215" height="240"><defs><path d="M137 30C137 46.56 123.56 60 107 60C90.44 60 77 46.56 77 30C77 13.44 90.44 0 107 0C123.56 0 137 13.44 137 30Z" id="csr8EpyUF"></path><path d="M137 210C137 226.56 123.56 240 107 240C90.44 240 77 226.56 77 210C77 193.44 90.44 180 107 180C123.56 180 137 193.44 137 210Z" id="i36HpIgFXI"></path><path d="M60 78C60 94.56 46.56 108 30 108C13.44 108 0 94.56 0 78C0 61.44 13.44 48 30 48C46.56 48 60 61.44 60 78Z" id="bJiS7I7YR"></path><path d="M60 162.31C60 178.87 46.56 192.31 30 192.31C13.44 192.31 0 178.87 0 162.31C0 145.76 13.44 132.31 30 132.31C46.56 132.31 60 145.76 60 162.31Z" id="bdKkIiGxu"></path><path d="M215.33 78.67C215.33 95.23 201.89 108.67 185.33 108.67C168.78 108.67 155.33 95.23 155.33 78.67C155.33 62.11 168.78 48.67 185.33 48.67C201.89 48.67 215.33 62.11 215.33 78.67Z" id="g1cOkWDkCu"></path><path d="M215.33 163C215.33 179.56 201.89 193 185.33 193C168.78 193 155.33 179.56 155.33 163C155.33 146.44 168.78 133 185.33 133C201.89 133 215.33 146.44 215.33 163Z" id="b5GUziJN4"></path><path d="M139.5 120C139.5 137.94 124.94 152.5 107 152.5C89.06 152.5 74.5 137.94 74.5 120C74.5 102.06 89.06 87.5 107 87.5C124.94 87.5 139.5 102.06 139.5 120Z" id="auZHsce1k"></path></defs><g><g><g><use xlink:href="#csr8EpyUF" opacity="1" fill="#34d789" fill-opacity="1"></use></g><g><use xlink:href="#i36HpIgFXI" opacity="1" fill="#34d789" fill-opacity="1"></use></g><g><use xlink:href="#bJiS7I7YR" opacity="1" fill="#34d789" fill-opacity="1"></use></g><g><use xlink:href="#bdKkIiGxu" opacity="1" fill="#34d789" fill-opacity="1"></use></g><g><use xlink:href="#g1cOkWDkCu" opacity="1" fill="#34d789" fill-opacity="1"></use></g><g><use xlink:href="#b5GUziJN4" opacity="1" fill="#34d789" fill-opacity="1"></use></g><g><g><use xlink:href="#auZHsce1k" opacity="1" fill-opacity="0" stroke="#34d789" stroke-width="35" stroke-opacity="1"></use></g></g></g></g></svg>